<?xml version="1.0" standalone="no"?>
<!DOCTYPE svg PUBLIC "-//W3C//DTD SVG 1.1//EN" "http://www.w3.org/Graphics/SVG/1.1/DTD/svg11.dtd"><svg t="1680498701451" class="icon" viewBox="0 0 1024 1024" version="1.1" xmlns="http://www.w3.org/2000/svg" p-id="2905" xmlns:xlink="http://www.w3.org/1999/xlink" width="200" height="200">
    <path d="M159.680281 959.462125c-23.852244 0-45.815465-10.507308-65.693188-31.514761-47.405683-50.098002-16.930601-100.313683-2.295276-124.446313 34.224476-56.388265 68.160379-112.955608 102.087073-169.513742 63.244416-105.430214 128.638799-214.446094 195.000206-320.488245 31.153534-49.793056 67.004043-78.107939 106.577341-84.160795 41.307801-6.260587 84.838224 10.66899 133.029806 51.92358 26.472931 22.678512 52.259224 46.739511 77.19515 70.004377 11.456936 10.68741 22.932292 21.38403 34.478256 31.965016 1.914606 1.753947 3.360538 3.813862 4.372587 6.03546 0.975211 2.185782 6.577812 4.608971 8.274454 7.40976 4.915963 8.121981 5.350868 18.764366 8.908904 27.520797 6.704702 16.442484 13.010315 32.95046 18.738783 49.76338 5.801123 17.08512 11.601222 34.530444 14.240329 52.439326 4.552689 30.933523-7.772011 54.489008-30.267351 75.18026-16.714683 15.384385-35.796274 29.380144-54.933123 41.60456-50.686403 32.372292-103.415324 63.081711-154.389276 92.780103-31.892361 18.576077-63.768349 37.153178-95.355765 56.215326-67.400063 40.703027-135.524626 82.888825-201.397916 123.679857l-39.021735 24.160259C198.286554 952.98255 178.400644 959.462125 159.680281 959.462125zM511.691473 265.1151c-3.650133 0-7.227612 0.272199-10.733459 0.805342-28.441772 4.354168-55.637158 26.960025-80.808444 67.201541-66.173119 105.755626-131.476427 214.616986-194.631816 319.901891-33.961486 56.613392-67.933205 113.233947-102.184287 169.676447-23.067368 38.010709-23.662933 57.410548-2.467191 79.80458 23.264866 24.603351 46.12348 26.311249 78.883605 6.04467l39.013549-24.159236c65.964364-40.847314 134.169769-83.078137 201.768353-123.885542 31.730679-19.164478 63.786769-37.838793 95.843882-56.515155 50.66696-29.509081 103.033631-60.029188 153.105027-91.993181 82.092693-52.413743 85.850274-67.455321 40.259936-160.913876-6.41613-13.174044-11.744485-27.022447-19.605523-39.482223-8.023744-12.703323-18.882046-23.093974-29.780257-33.273824-24.665773-23.003923-50.161447-46.792723-76.036767-68.947302C569.951365 279.961226 538.868439 265.1151 511.691473 265.1151z" p-id="2906"></path><path d="M607.281575 295.110251c-1.861394 0-3.758604-0.288572-5.638417-0.884137-9.721409-3.116991-15.108093-13.535271-11.999288-23.264866 6.089695-18.98233 9.975189-39.86187 13.734816-60.055794 9.612938-51.779294 19.588127-105.320721 66.279542-142.606929 3.036149-2.421142 6.757914-3.821025 10.624988-4.010337 43.602054-2.295276 58.998719 23.62507 69.244061 40.683585l2.835581 4.652973c9.56075 15.332197 13.879102 20.772093 30.197766 20.129456 57.497529-1.599428 89.082898-2.503007 104.533798 18.08796 15.376199 20.500916 6.089695 49.304939-12.414751 106.675578-3.107781 9.731642-13.536294 15.124466-23.274076 11.936867-9.721409-3.136433-15.072277-13.561877-11.92561-23.283286 9.973142-31.000038 21.323655-66.135256 17.907858-73.27384-5.744841-5.059226-43.476187-3.993964-73.762981-3.152806-35.597753 0.86674-49.961902-17.165961-62.664202-37.541011l-3.128247-5.158487c-8.347109-13.850449-13.298887-22.100344-29.777187-22.832008-31.985482 28.722158-39.919175 71.403237-48.304146 116.460432-3.955078 21.314445-8.057513 43.35953-14.833847 64.563458C622.387621 290.097074 615.12317 295.110251 607.281575 295.110251z" p-id="2907"></path><path d="M741.431901 420.010913c-7.481392 0-14.527878-4.580319-17.310248-11.998265-3.613294-9.568936 1.228991-20.237927 10.80509-23.833825 20.819165-7.834432 42.97272-11.518335 64.420195-15.07944 46.113247-7.670703 86.392626-14.365172 111.76141-57.715493-25.983791-29.435403-46.311769-44.867884-83.083254-27.330462-9.179057 4.373611-20.274766 0.488117-24.647353-8.745175-4.409426-9.226129-0.488117-20.267603 8.745175-24.667819 68.195172-32.506345 106.974383 12.96529 135.307685 46.152133 4.716418 5.528923 5.765307 13.30912 2.673899 19.877723-33.102932 70.381977-92.371804 80.239486-144.686287 88.929402-20.581758 3.425006-40.022529 6.6607-57.480132 13.219069C745.805512 419.621033 743.60131 420.010913 741.431901 420.010913z" p-id="2908"></path><path d="M487.007281 554.152029c-4.76963 0-9.540284-1.833765-13.173021-5.502317-35.181267-35.634592-78.440513-75.107605-132.713604-97.68481-9.432837-3.932566-13.895475-14.755052-9.975189-24.196075 3.939729-9.432837 14.754029-13.879102 24.196075-9.975189 60.32697 25.099654 107.073644 67.599607 144.838759 105.853863 7.175423 7.271614 7.100722 18.99154-0.161682 26.172079C496.406348 552.372499 491.706303 554.152029 487.007281 554.152029z" p-id="2909"></path><path d="M375.968325 665.175635c-3.660366 0-7.363711-1.086751-10.597359-3.344165l-92.51916-64.763003c-8.365528-5.863545-10.398838-17.399275-4.54348-25.77606 5.871731-8.366551 17.392112-10.399861 25.77606-4.542456l92.527346 64.759933c8.348132 5.863545 10.389628 17.401322 4.535293 25.77606C387.551128 662.429081 381.805264 665.175635 375.968325 665.175635z" p-id="2910"></path>
</svg>